<svg aria-hidden="true" style="position: absolute; width: 0; height: 0; overflow: hidden;" version="1.1" xmlns="http://www.w3.org/2000/svg" xmlns:xlink="http://www.w3.org/1999/xlink">
<defs>
<symbol id="icon-close" viewBox="0 0 32 32">
<path fill="none" stroke="#407bff" style="stroke: var(--color1, #407bff)" stroke-linejoin="round" stroke-linecap="round" stroke-miterlimit="4" stroke-width="2" d="M8 24l16-16M8 8l16 16"></path>
</symbol>
<symbol id="icon-cup" viewBox="0 0 25 32">
<path fill="#407bff" style="fill: var(--color1, #407bff)" d="M0.278 0.139l2.281 31.636v0.086h19.64l2.281-31.623v-0.098h-24.203zM21.393 30.975h-18.020l-1.711-23.696h0.94l1.547 20.883c0.009 0.11 0.058 0.212 0.138 0.288s0.184 0.117 0.293 0.119h0.036c0.057-0.004 0.112-0.019 0.163-0.045s0.096-0.061 0.133-0.105c0.037-0.043 0.066-0.094 0.083-0.149s0.025-0.112 0.021-0.17l-1.547-20.822h19.634l-1.711 23.696zM23.164 6.392h-19.761l-0.34-4.616c-0.011-0.113-0.063-0.217-0.146-0.292s-0.191-0.116-0.303-0.114c-0.114 0.011-0.22 0.067-0.295 0.155s-0.113 0.203-0.106 0.319l0.34 4.555h-0.953l-0.388-5.379h22.34l-0.388 5.373z"></path>
<path fill="#407bff" style="fill: var(--color1, #407bff)" d="M7.231 11.661c0.283 0 0.56-0.085 0.796-0.245s0.419-0.386 0.527-0.652c0.108-0.265 0.137-0.557 0.081-0.839s-0.192-0.541-0.392-0.744c-0.2-0.203-0.455-0.341-0.733-0.398s-0.566-0.027-0.827 0.083c-0.262 0.11-0.485 0.296-0.643 0.535s-0.241 0.52-0.241 0.807c0 0.385 0.151 0.755 0.419 1.027s0.633 0.425 1.013 0.425zM7.231 9.636c0.112 0 0.221 0.034 0.314 0.096s0.165 0.152 0.208 0.257c0.043 0.105 0.054 0.22 0.032 0.331s-0.075 0.213-0.154 0.293c-0.079 0.080-0.179 0.135-0.289 0.157s-0.223 0.011-0.326-0.033c-0.103-0.043-0.191-0.117-0.253-0.211s-0.095-0.205-0.095-0.318c0-0.152 0.059-0.297 0.165-0.405s0.249-0.168 0.399-0.168z"></path>
<path fill="#407bff" style="fill: var(--color1, #407bff)" d="M7.225 16.382c0.004 0.287 0.091 0.566 0.251 0.803s0.385 0.42 0.647 0.527c0.262 0.107 0.55 0.133 0.827 0.074s0.53-0.199 0.728-0.404c0.198-0.204 0.332-0.464 0.385-0.745s0.023-0.573-0.087-0.837-0.294-0.49-0.53-0.648c-0.236-0.158-0.513-0.242-0.795-0.241-0.189 0.001-0.376 0.040-0.55 0.114s-0.332 0.183-0.465 0.32-0.237 0.299-0.308 0.477c-0.071 0.178-0.106 0.368-0.103 0.56zM9.215 16.382c0 0.113-0.033 0.224-0.095 0.318s-0.15 0.167-0.253 0.211-0.217 0.055-0.326 0.033c-0.109-0.022-0.21-0.077-0.289-0.157s-0.133-0.182-0.154-0.293-0.011-0.226 0.032-0.331c0.043-0.105 0.115-0.194 0.208-0.257s0.202-0.096 0.313-0.096c0.15 0 0.293 0.060 0.399 0.168s0.165 0.253 0.165 0.405z"></path>
<path fill="#407bff" style="fill: var(--color1, #407bff)" d="M17.4 16.419c0.283 0 0.56-0.085 0.796-0.245s0.419-0.386 0.527-0.652c0.108-0.265 0.137-0.557 0.081-0.839s-0.192-0.541-0.392-0.744c-0.2-0.203-0.455-0.341-0.733-0.398s-0.566-0.027-0.827 0.083-0.485 0.296-0.643 0.535c-0.157 0.239-0.241 0.52-0.241 0.807 0 0.385 0.151 0.755 0.419 1.027s0.633 0.425 1.012 0.425zM17.4 14.4c0.112 0 0.221 0.034 0.314 0.097s0.165 0.153 0.208 0.258c0.043 0.105 0.053 0.22 0.031 0.332s-0.077 0.213-0.156 0.293c-0.079 0.080-0.181 0.134-0.29 0.155s-0.223 0.009-0.326-0.035c-0.103-0.044-0.191-0.119-0.252-0.214s-0.093-0.206-0.092-0.32c0.002-0.151 0.062-0.295 0.167-0.401s0.248-0.166 0.397-0.166z"></path>
<path fill="#407bff" style="fill: var(--color1, #407bff)" d="M12.413 13.68c0.283 0 0.56-0.085 0.796-0.245s0.419-0.386 0.527-0.652c0.108-0.265 0.137-0.558 0.082-0.839s-0.192-0.541-0.392-0.744c-0.2-0.203-0.455-0.341-0.733-0.397s-0.566-0.027-0.827 0.083c-0.262 0.11-0.485 0.296-0.643 0.535s-0.241 0.52-0.241 0.807c0 0.385 0.151 0.755 0.419 1.027s0.633 0.425 1.012 0.425zM12.413 11.655c0.112 0 0.221 0.034 0.313 0.097s0.165 0.152 0.208 0.257c0.043 0.105 0.054 0.22 0.032 0.331s-0.076 0.213-0.154 0.293c-0.079 0.080-0.179 0.134-0.289 0.157s-0.223 0.011-0.326-0.033c-0.103-0.043-0.191-0.117-0.253-0.211s-0.095-0.205-0.095-0.318c-0.004-0.078 0.007-0.155 0.034-0.228s0.067-0.14 0.12-0.196 0.116-0.101 0.187-0.132c0.071-0.031 0.146-0.046 0.223-0.046v0.031z"></path>
<path fill="#407bff" style="fill: var(--color1, #407bff)" d="M9.683 21.915c0.006 0.236 0.080 0.465 0.214 0.658s0.32 0.342 0.537 0.428c0.217 0.086 0.453 0.105 0.681 0.056s0.435-0.166 0.598-0.335c0.162-0.169 0.272-0.383 0.315-0.615s0.018-0.472-0.072-0.689c-0.090-0.218-0.242-0.403-0.436-0.534s-0.421-0.2-0.654-0.2c-0.317 0.008-0.617 0.141-0.838 0.371s-0.345 0.538-0.345 0.86zM10.866 21.595c0.062 0 0.123 0.019 0.175 0.054s0.092 0.085 0.116 0.144 0.030 0.123 0.018 0.185c-0.012 0.062-0.042 0.119-0.086 0.164s-0.1 0.075-0.162 0.088-0.125 0.006-0.182-0.018c-0.058-0.024-0.107-0.065-0.142-0.118s-0.053-0.114-0.053-0.178c0-0.085 0.033-0.166 0.092-0.226s0.139-0.094 0.223-0.094z"></path>
<path fill="#407bff" style="fill: var(--color1, #407bff)" d="M15.404 20.579c0.243 0.009 0.483-0.057 0.688-0.188s0.368-0.322 0.465-0.548c0.098-0.226 0.126-0.476 0.081-0.719s-0.16-0.466-0.331-0.641c-0.171-0.175-0.39-0.294-0.628-0.342s-0.486-0.021-0.709 0.075c-0.224 0.097-0.414 0.259-0.545 0.466s-0.199 0.45-0.193 0.696c0.008 0.314 0.133 0.613 0.351 0.836s0.511 0.354 0.82 0.364zM15.404 19.059c0.084 0 0.164 0.034 0.223 0.094s0.092 0.141 0.092 0.226-0.033 0.166-0.092 0.226c-0.059 0.060-0.139 0.094-0.223 0.094s-0.165-0.034-0.225-0.093-0.095-0.141-0.096-0.227c0-0.043 0.008-0.085 0.025-0.124s0.040-0.075 0.070-0.105c0.030-0.030 0.065-0.053 0.104-0.069s0.081-0.023 0.123-0.023z"></path>
<path fill="#407bff" style="fill: var(--color1, #407bff)" d="M17.904 10.645c0.24 0 0.475-0.072 0.674-0.207s0.355-0.328 0.447-0.552c0.092-0.225 0.116-0.472 0.069-0.711s-0.162-0.458-0.332-0.63c-0.17-0.172-0.386-0.289-0.621-0.337s-0.479-0.023-0.701 0.070c-0.222 0.093-0.411 0.251-0.545 0.453s-0.204 0.44-0.204 0.684c0 0.326 0.128 0.64 0.355 0.87s0.536 0.361 0.858 0.361zM17.904 9.125c0.047-0.014 0.096-0.016 0.144-0.007s0.093 0.029 0.132 0.059c0.039 0.030 0.071 0.068 0.092 0.113s0.033 0.093 0.033 0.143c0 0.050-0.011 0.098-0.033 0.143s-0.053 0.083-0.092 0.113c-0.039 0.030-0.084 0.050-0.132 0.059s-0.097 0.007-0.144-0.007c-0.047 0.014-0.096 0.016-0.144 0.007s-0.093-0.029-0.132-0.059c-0.039-0.030-0.071-0.068-0.092-0.113s-0.033-0.093-0.033-0.143 0.011-0.098 0.033-0.143c0.022-0.044 0.053-0.083 0.092-0.113s0.084-0.050 0.132-0.059 0.097-0.007 0.144 0.007z"></path>
<path fill="#407bff" style="fill: var(--color1, #407bff)" d="M6.042 29.43c-0.054 0.026-0.103 0.062-0.143 0.107s-0.070 0.099-0.089 0.156c-0.019 0.058-0.026 0.119-0.020 0.179s0.023 0.119 0.052 0.173c0.037 0.072 0.093 0.132 0.161 0.174s0.147 0.065 0.227 0.066c0.067 0.002 0.134-0.013 0.194-0.043 1.854-0.963 3.906-1.47 5.988-1.477 2.204 0.033 4.378 0.529 6.383 1.459 0.079 0.042 0.169 0.058 0.258 0.047s0.172-0.051 0.238-0.112c0.066-0.061 0.112-0.141 0.132-0.23s0.012-0.181-0.022-0.265c-0.043-0.109-0.125-0.197-0.23-0.246-2.123-0.985-4.425-1.509-6.759-1.539-2.214 0.002-4.397 0.533-6.371 1.551z"></path>
</symbol>
<symbol id="icon-arrow-long-left" viewBox="0 0 32 32">
<path d="M9.706 10.293c0.187 0.188 0.292 0.442 0.292 0.707s-0.105 0.519-0.292 0.707l-3.293 3.293h21.587c0.265 0 0.52 0.105 0.707 0.293s0.293 0.442 0.293 0.707c0 0.265-0.105 0.519-0.293 0.707s-0.442 0.293-0.707 0.293h-21.587l3.293 3.293c0.098 0.091 0.177 0.202 0.232 0.325s0.084 0.255 0.086 0.389c0.002 0.134-0.022 0.268-0.073 0.392s-0.125 0.238-0.22 0.333-0.208 0.17-0.333 0.22c-0.125 0.050-0.258 0.075-0.392 0.073s-0.267-0.032-0.389-0.086-0.233-0.133-0.325-0.232l-5-5c-0.187-0.188-0.292-0.442-0.292-0.707s0.105-0.519 0.292-0.707l5-5c0.188-0.187 0.442-0.292 0.707-0.292s0.519 0.105 0.707 0.292z"></path>
</symbol>
<symbol id="icon-arrow-right-on-rectangle" viewBox="0 0 32 32">
<path stroke-linejoin="round" stroke-linecap="round" stroke-miterlimit="4" stroke-width="1.3333" d="M21 12v-5c0-0.796-0.316-1.559-0.879-2.121s-1.326-0.879-2.121-0.879h-8c-0.796 0-1.559 0.316-2.121 0.879s-0.879 1.326-0.879 2.121v18c0 0.796 0.316 1.559 0.879 2.121s1.326 0.879 2.121 0.879h8c0.796 0 1.559-0.316 2.121-0.879s0.879-1.326 0.879-2.121v-5M25 20l4-4M29 16l-4-4M29 16h-17"></path>
</symbol>
<symbol id="icon-arrow-up-tray" viewBox="0 0 32 32">
<path stroke-linejoin="round" stroke-linecap="round" stroke-miterlimit="4" stroke-width="1.3333" d="M4 22v3c0 0.796 0.316 1.559 0.879 2.121s1.326 0.879 2.121 0.879h18c0.796 0 1.559-0.316 2.121-0.879s0.879-1.326 0.879-2.121v-3M10 10l6-6M16 4l6 6M16 4v18"></path>
</symbol>
<symbol id="icon-calendar-days" viewBox="0 0 32 32">
<path fill="none" stroke="#407bff" style="stroke: var(--color1, #407bff)" stroke-linejoin="round" stroke-linecap="round" stroke-miterlimit="4" stroke-width="1.6" d="M9 4v3M23 4v3M4 25v-15c0-0.796 0.316-1.559 0.879-2.121s1.326-0.879 2.121-0.879h18c0.796 0 1.559 0.316 2.121 0.879s0.879 1.326 0.879 2.121v15M4 25c0 0.796 0.316 1.559 0.879 2.121s1.326 0.879 2.121 0.879h18c0.796 0 1.559-0.316 2.121-0.879s0.879-1.326 0.879-2.121M4 25v-10c0-0.796 0.316-1.559 0.879-2.121s1.326-0.879 2.121-0.879h18c0.796 0 1.559 0.316 2.121 0.879s0.879 1.326 0.879 2.121v10M16 17h0.011v0.011h-0.011v-0.011zM16 20h0.011v0.011h-0.011v-0.011zM16 23h0.011v0.011h-0.011v-0.011zM13 20h0.011v0.011h-0.011v-0.011zM13 23h0.011v0.011h-0.011v-0.011zM10 20h0.011v0.011h-0.011v-0.011zM10 23h0.011v0.011h-0.011v-0.011zM19 17h0.011v0.011h-0.011v-0.011zM19 20h0.011v0.011h-0.011v-0.011zM19 23h0.011v0.011h-0.011v-0.011zM22 17h0.011v0.011h-0.011v-0.011zM22 20h0.011v0.011h-0.011v-0.011z"></path>
</symbol>
<symbol id="icon-chevron-double-up" viewBox="0 0 32 32">
<path d="M16.706 21.707c-0.187 0.187-0.442 0.293-0.707 0.293s-0.519-0.105-0.707-0.293l-10-10c-0.177-0.19-0.273-0.44-0.268-0.699s0.11-0.506 0.293-0.689c0.183-0.183 0.43-0.288 0.689-0.293s0.51 0.092 0.699 0.268l9.293 9.293 9.293-9.293c0.092-0.098 0.202-0.177 0.325-0.232s0.255-0.084 0.389-0.086c0.134-0.002 0.268 0.022 0.392 0.073s0.238 0.125 0.333 0.22 0.17 0.208 0.22 0.333c0.050 0.125 0.075 0.258 0.073 0.392s-0.032 0.267-0.086 0.389-0.133 0.233-0.232 0.325l-10 10z"></path>
</symbol>
<symbol id="icon-cog-6-tooth" viewBox="0 0 32 32">
<path stroke-linejoin="round" stroke-linecap="round" stroke-miterlimit="4" stroke-width="1.3333" d="M12.792 5.253c0.12-0.723 0.747-1.253 1.48-1.253h3.457c0.733 0 1.36 0.531 1.48 1.253l0.284 1.708c0.084 0.499 0.417 0.915 0.86 1.16 0.099 0.053 0.196 0.111 0.293 0.169 0.432 0.261 0.96 0.343 1.433 0.165l1.623-0.608c0.333-0.125 0.699-0.128 1.033-0.008s0.616 0.354 0.793 0.662l1.728 2.996c0.177 0.308 0.24 0.668 0.177 1.018s-0.249 0.665-0.523 0.89l-1.337 1.103c-0.391 0.32-0.584 0.817-0.575 1.323 0.002 0.113 0.002 0.227 0 0.34-0.009 0.504 0.184 1 0.573 1.32l1.34 1.104c0.565 0.467 0.712 1.272 0.347 1.907l-1.731 2.996c-0.177 0.307-0.458 0.542-0.793 0.662s-0.7 0.117-1.033-0.007l-1.623-0.608c-0.473-0.177-1-0.096-1.435 0.165-0.097 0.059-0.194 0.116-0.293 0.171-0.441 0.244-0.775 0.66-0.859 1.159l-0.284 1.707c-0.12 0.724-0.747 1.255-1.48 1.255h-3.459c-0.733 0-1.36-0.531-1.48-1.253l-0.284-1.708c-0.083-0.499-0.416-0.915-0.859-1.16-0.099-0.055-0.197-0.111-0.293-0.169-0.433-0.261-0.96-0.343-1.435-0.165l-1.623 0.608c-0.332 0.125-0.698 0.127-1.032 0.008s-0.615-0.354-0.793-0.661l-1.729-2.996c-0.177-0.308-0.24-0.668-0.176-1.018s0.249-0.665 0.523-0.89l1.339-1.103c0.389-0.32 0.583-0.817 0.573-1.323-0.002-0.113-0.002-0.227 0-0.34 0.009-0.504-0.184-1-0.573-1.32l-1.339-1.104c-0.274-0.225-0.459-0.541-0.523-0.89s-0.001-0.709 0.176-1.017l1.729-2.996c0.178-0.308 0.459-0.543 0.793-0.662s0.701-0.117 1.033 0.008l1.621 0.608c0.475 0.177 1.001 0.096 1.435-0.165 0.096-0.059 0.195-0.116 0.293-0.171 0.443-0.244 0.776-0.66 0.859-1.159l0.285-1.708z"></path>
<path stroke-linejoin="round" stroke-linecap="round" stroke-miterlimit="4" stroke-width="1.3333" d="M20 16c0 1.061-0.421 2.078-1.172 2.828s-1.768 1.172-2.828 1.172c-1.061 0-2.078-0.421-2.828-1.172s-1.172-1.768-1.172-2.828c0-1.061 0.421-2.078 1.172-2.828s1.768-1.172 2.828-1.172c1.061 0 2.078 0.421 2.828 1.172s1.172 1.768 1.172 2.828z"></path>
</symbol>
<symbol id="icon-eye" viewBox="0 0 32 32">
<path stroke-linejoin="round" stroke-linecap="round" stroke-miterlimit="4" stroke-width="1.3333" d="M2.715 16.429c-0.092-0.277-0.092-0.575 0-0.852 1.849-5.564 7.099-9.577 13.285-9.577 6.184 0 11.431 4.009 13.284 9.571 0.093 0.276 0.093 0.575 0 0.852-1.848 5.564-7.097 9.577-13.284 9.577-6.184 0-11.432-4.009-13.285-9.571z"></path>
<path stroke-linejoin="round" stroke-linecap="round" stroke-miterlimit="4" stroke-width="1.3333" d="M20 16c0 1.061-0.421 2.078-1.172 2.828s-1.768 1.172-2.828 1.172c-1.061 0-2.078-0.421-2.828-1.172s-1.172-1.768-1.172-2.828c0-1.061 0.421-2.078 1.172-2.828s1.768-1.172 2.828-1.172c1.061 0 2.078 0.421 2.828 1.172s1.172 1.768 1.172 2.828z"></path>
</symbol>
<symbol id="icon-eye-slash" viewBox="0 0 32 32">
<path stroke-linejoin="round" stroke-linecap="round" stroke-miterlimit="4" stroke-width="1.3333" d="M5.307 10.964c-1.247 1.472-2.176 3.187-2.728 5.036 1.723 5.784 7.080 10 13.421 10 1.324 0 2.604-0.184 3.817-0.527M8.304 8.304c2.284-1.507 4.96-2.308 7.696-2.304 6.341 0 11.697 4.216 13.42 9.997-0.944 3.159-2.971 5.885-5.724 7.699M8.304 8.304l-4.304-4.304M8.304 8.304l4.867 4.867M23.696 23.696l4.304 4.304M23.696 23.696l-4.867-4.867c0.371-0.371 0.666-0.812 0.867-1.298s0.304-1.005 0.304-1.531-0.103-1.045-0.304-1.531c-0.201-0.485-0.496-0.926-0.867-1.298s-0.813-0.666-1.298-0.867c-0.485-0.201-1.005-0.304-1.531-0.304s-1.046 0.103-1.531 0.305c-0.485 0.201-0.926 0.496-1.298 0.867M18.828 18.828l-5.655-5.655"></path>
</symbol>
<symbol id="icon-minus-small" viewBox="0 0 32 32">
<path d="M7 16c0-0.265 0.105-0.52 0.293-0.707s0.442-0.293 0.707-0.293h16c0.265 0 0.52 0.105 0.707 0.293s0.293 0.442 0.293 0.707-0.105 0.52-0.293 0.707c-0.187 0.188-0.442 0.293-0.707 0.293h-16c-0.265 0-0.52-0.105-0.707-0.293s-0.293-0.442-0.293-0.707z"></path>
</symbol>
<symbol id="icon-pencil-square" viewBox="0 0 32 32">
<path stroke-linejoin="round" stroke-linecap="round" stroke-miterlimit="4" stroke-width="1.3333" d="M22.483 5.983l2.249-2.251c0.469-0.469 1.105-0.732 1.768-0.732s1.299 0.263 1.768 0.732c0.469 0.469 0.732 1.105 0.732 1.768s-0.263 1.299-0.732 1.768l-14.159 14.159c-0.705 0.705-1.574 1.222-2.529 1.507l-3.58 1.067 1.067-3.58c0.284-0.955 0.802-1.824 1.507-2.529l11.909-11.908zM22.483 5.983l3.517 3.517M24 18.667v6.333c0 0.796-0.316 1.559-0.879 2.121s-1.326 0.879-2.121 0.879h-14c-0.796 0-1.559-0.316-2.121-0.879s-0.879-1.326-0.879-2.121v-14c0-0.796 0.316-1.559 0.879-2.121s1.326-0.879 2.121-0.879h6.333"></path>
</symbol>
<symbol id="icon-plus-circle" viewBox="0 0 32 32">
<path stroke-linejoin="round" stroke-linecap="round" stroke-miterlimit="4" stroke-width="1.3333" d="M16 12v8M20 16h-8M28 16c0 1.576-0.31 3.136-0.913 4.592s-1.487 2.779-2.601 3.893c-1.114 1.114-2.437 1.998-3.893 2.601s-3.016 0.913-4.592 0.913-3.136-0.31-4.592-0.913c-1.456-0.603-2.779-1.487-3.893-2.601s-1.998-2.437-2.601-3.893c-0.603-1.456-0.913-3.016-0.913-4.592 0-3.183 1.264-6.235 3.515-8.485s5.303-3.515 8.485-3.515c3.183 0 6.235 1.264 8.485 3.515s3.515 5.303 3.515 8.485z"></path>
</symbol>
<symbol id="icon-plus-small" viewBox="0 0 32 32">
<path stroke-linejoin="round" stroke-linecap="round" stroke-miterlimit="4" stroke-width="1.3333" d="M16 8v16M24 16h-16"></path>
</symbol>
<symbol id="icon-presentation-chart-bar" viewBox="0 0 32 32">
<path fill="none" stroke="#407bff" style="stroke: var(--color1, #407bff)" stroke-linejoin="round" stroke-linecap="round" stroke-miterlimit="4" stroke-width="1.6" d="M5 4v15c0 0.796 0.316 1.559 0.879 2.121s1.326 0.879 2.121 0.879h3M5 4h-2M5 4h22M11 22h10M11 22l-1.333 4M27 4h2M27 4v15c0 0.796-0.316 1.559-0.879 2.121s-1.326 0.879-2.121 0.879h-3M21 22l1.333 4M9.667 26h12.667M9.667 26l-0.667 2M22.333 26l0.667 2M12 15v2M16 12v5M20 9v8"></path>
</symbol>
<symbol id="icon-trash" viewBox="0 0 32 32">
<path stroke-linejoin="round" stroke-linecap="round" stroke-miterlimit="4" stroke-width="1.3333" d="M19.653 12l-0.461 12M12.808 24l-0.461-12M25.637 7.72c0.456 0.069 0.909 0.143 1.363 0.221M25.637 7.72l-1.424 18.511c-0.058 0.754-0.399 1.458-0.953 1.971s-1.283 0.799-2.039 0.798h-10.443c-0.756 0-1.484-0.285-2.039-0.798s-0.895-1.217-0.953-1.971l-1.424-18.511M25.637 7.72c-1.539-0.233-3.086-0.409-4.637-0.529M6.363 7.72c-0.456 0.068-0.909 0.141-1.363 0.22M6.363 7.72c1.539-0.233 3.086-0.409 4.637-0.529M21 7.191v-1.221c0-1.573-1.213-2.885-2.787-2.935-1.475-0.047-2.951-0.047-4.427 0-1.573 0.049-2.787 1.363-2.787 2.935v1.221M21 7.191c-3.328-0.257-6.672-0.257-10 0"></path>
</symbol>
<symbol id="icon-user" viewBox="0 0 32 32">
<path stroke-linejoin="miter" stroke-linecap="butt" stroke-miterlimit="4" stroke-width="1.3333" d="M31.333 16c0 8.468-6.865 15.333-15.333 15.333s-15.333-6.865-15.333-15.333c0-8.468 6.865-15.333 15.333-15.333s15.333 6.865 15.333 15.333z"></path>
<path stroke-linejoin="round" stroke-linecap="round" stroke-miterlimit="4" stroke-width="1.3333" d="M20.001 9.436c0 1.088-0.421 2.132-1.172 2.901s-1.768 1.202-2.829 1.202c-1.061 0-2.079-0.432-2.829-1.202s-1.172-1.813-1.172-2.901c0-1.088 0.421-2.132 1.172-2.901s1.768-1.202 2.829-1.202c1.061 0 2.079 0.432 2.829 1.202s1.172 1.813 1.172 2.901zM8 24.881c0.034-2.153 0.892-4.205 2.389-5.715s3.512-2.356 5.611-2.356c2.099 0 4.115 0.846 5.611 2.356s2.355 3.562 2.389 5.715c-2.51 1.18-5.239 1.789-8 1.785-2.855 0-5.564-0.639-8-1.785z"></path>
</symbol>
<symbol id="icon-wrench-screwdriver" viewBox="0 0 32 32">
<path fill="none" stroke="#407bff" style="stroke: var(--color1, #407bff)" stroke-linejoin="round" stroke-linecap="round" stroke-miterlimit="4" stroke-width="1.6" d="M15.227 20.227l7.773 7.773c0.667 0.645 1.56 1.003 2.488 0.995s1.816-0.379 2.472-1.036c0.656-0.656 1.028-1.544 1.036-2.472s-0.35-1.821-0.995-2.488l-7.836-7.836M15.227 20.227l3.328-4.040c0.423-0.512 0.987-0.835 1.611-1.021 0.733-0.219 1.551-0.251 2.324-0.187 1.042 0.090 2.090-0.095 3.039-0.536s1.766-1.121 2.371-1.975 0.975-1.851 1.076-2.893c0.1-1.041-0.074-2.091-0.504-3.045l-4.368 4.369c-0.731-0.169-1.399-0.54-1.93-1.070s-0.901-1.199-1.070-1.93l4.368-4.368c-0.954-0.431-2.003-0.605-3.044-0.504s-2.039 0.471-2.893 1.076-1.535 1.422-1.975 2.371c-0.44 0.949-0.625 1.997-0.536 3.039 0.121 1.435-0.095 3.019-1.205 3.933l-0.136 0.113M15.227 20.227l-6.207 7.537c-0.301 0.367-0.675 0.666-1.099 0.88s-0.887 0.336-1.361 0.359c-0.474 0.023-0.947-0.053-1.39-0.224s-0.844-0.432-1.18-0.767-0.597-0.737-0.767-1.18c-0.171-0.442-0.247-0.916-0.223-1.39s0.146-0.937 0.359-1.361c0.213-0.424 0.513-0.798 0.88-1.099l9.116-7.507-5.476-5.476h-1.879l-3-5 2-2 5 3v1.879l5.68 5.68-2.327 1.916M24.5 24.5l-3.5-3.5M6.489 25.5h0.011v0.011h-0.011v-0.011z"></path>
</symbol>
</defs>
</svg>
