<svg aria-hidden="true" style="position:absolute;width:0;height:0;overflow:hidden" xmlns="http://www.w3.org/2000/svg">
  <defs>
 
 <symbol id="edit" viewBox="0 0 24 24">
    <path d="m18.903 3.153-1.334 1.334 1.945 1.944 1.333-1.334a1.375 1.375 0 1 0-1.944-1.944Zm-.097 3.985-1.944-1.944-8.578 8.578a4 4 0 0 0-1.005 1.686l-.536 1.799 1.8-.536a4 4 0 0 0 1.686-1.005l8.577-8.577ZM16.51 4.133l1.686-1.687a2.376 2.376 0 0 1 3.36 3.359l-10.62 10.619a5.001 5.001 0 0 1-2.107 1.255l-2.685.8a.5.5 0 0 1-.622-.622l.8-2.685a5 5 0 0 1 1.255-2.107l8.933-8.932ZM5.25 6.5A1.75 1.75 0 0 0 3.5 8.25v10.5a1.75 1.75 0 0 0 1.75 1.75h10.5a1.75 1.75 0 0 0 1.75-1.75V14a.5.5 0 0 1 1 0v4.75a2.75 2.75 0 0 1-2.75 2.75H5.25a2.75 2.75 0 0 1-2.75-2.75V8.25A2.75 2.75 0 0 1 5.25 5.5H10a.5.5 0 0 1 0 1H5.25Z"/>
  </symbol>

  <symbol id="plus" viewBox="0 0 24 24">
    <path d="M12 5.5a.5.5 0 0 1 .5.5v5.5H18a.5.5 0 0 1 0 1h-5.5V18a.5.5 0 0 1-1 0v-5.5H6a.5.5 0 0 1 0-1h5.5V6a.5.5 0 0 1 .5-.5Z"/>
  </symbol>

  <symbol id="plus-circle" viewBox="0 0 24 24">
    <path d="M12 3.5a8.5 8.5 0 1 0 0 17 8.5 8.5 0 0 0 0-17ZM5.282 5.282a9.5 9.5 0 1 1 13.435 13.435A9.5 9.5 0 0 1 5.282 5.282ZM12 8.5a.5.5 0 0 1 .5.5v2.5H15a.5.5 0 0 1 0 1h-2.5V15a.5.5 0 0 1-1 0v-2.5H9a.5.5 0 0 1 0-1h2.5V9a.5.5 0 0 1 .5-.5Z"/>
  </symbol>

  <symbol id="icon-plus" viewBox="0 0 24 24">
    <path d="M12 22c-1.32 0-2.61-.26-3.83-.76a9.718 9.718 0 0 1-3.24-2.17 10.18 10.18 0 0 1-2.17-3.25A9.876 9.876 0 0 1 2 11.99c0-2.67 1.04-5.18 2.93-7.07A9.964 9.964 0 0 1 12 2c2.67 0 5.18 1.04 7.07 2.93A9.932 9.932 0 0 1 22 12c0 1.32-.26 2.61-.76 3.83a9.718 9.718 0 0 1-2.17 3.24c-.93.93-2.03 1.66-3.24 2.17-1.22.51-2.51.76-3.83.76Zm0-18c-2.14 0-4.15.83-5.66 2.34A8.05 8.05 0 0 0 4 12c0 1.06.21 2.09.61 3.06.4.97.99 1.85 1.73 2.6.75.75 1.62 1.33 2.6 1.73 1.95.81 4.17.81 6.12 0 .97-.4 1.85-.99 2.6-1.73.75-.75 1.33-1.62 1.73-2.6.4-.98.61-2 .61-3.06 0-2.11-.85-4.17-2.34-5.66A7.949 7.949 0 0 0 12 4Zm0 12c-.55 0-1-.45-1-1v-2H9c-.55 0-1-.45-1-1s.45-1 1-1h2V9c0-.55.45-1 1-1s1 .45 1 1v2h2c.55 0 1 .45 1 1s-.45 1-1 1h-2v2c0 .55-.45 1-1 1Z"/>
  </symbol>

  <symbol id="trash" viewBox="0 0 24 24">
    <path d="M9.18 8.59h-.02c-.28.01-.5.24-.49.51l.36 8.78c.01.26.24.47.51.47h.02c.28-.01.5-.24.49-.51l-.36-8.78a.505.505 0 0 0-.51-.47Z"/>
    <path d="M20.57 5.62c-.35-.06-.7-.11-1.06-.16h-.01c-1.04-.15-2.09-.27-3.13-.35v-.44c0-1.44-1.16-2.6-2.65-2.64-1.14-.03-2.3-.03-3.44 0-1.48.04-2.65 1.2-2.65 2.64v.44c-1.04.09-2.09.2-3.14.35h-.01c-.35.05-.7.1-1.06.16-.28.05-.47.3-.42.56.05.27.32.44.59.4.16-.03.33-.05.49-.08l1.06 13.02c.05.68.37 1.3.9 1.76.52.46 1.2.71 1.92.71h8.06c.71 0 1.39-.25 1.92-.71.53-.46.84-1.09.9-1.76L19.9 6.5c.16.03.33.05.49.08.28.04.55-.13.59-.4a.488.488 0 0 0-.42-.56h.01ZM8.65 4.66c0-.9.73-1.63 1.65-1.66 1.12-.04 2.26-.04 3.38 0 .93.03 1.65.76 1.65 1.66v.37c-1.11-.07-2.23-.1-3.34-.1-1.11 0-2.23.04-3.34.1v-.37Zm9.16 14.79c-.03.43-.24.83-.57 1.12-.33.29-.77.45-1.22.45H7.97c-.45 0-.89-.16-1.22-.45-.33-.29-.54-.69-.57-1.12L5.12 6.36c1.02-.14 2.05-.24 3.06-.32h.01c2.53-.18 5.09-.18 7.62 0 1.01.07 2.04.18 3.06.32l-1.06 13.09Z"/>
    <path d="M14.84 8.59c-.32 0-.52.2-.53.47l-.36 8.78c-.01.27.21.5.49.51h.02c.28 0 .5-.21.51-.47l.36-8.78c.01-.27-.21-.5-.49-.51Z"/>
  </symbol>

  <symbol id="cup" viewBox="0 0 24 24">
    <path d="m.522.26 1.544 21.42v.06h13.298L16.91.327V.26H.522ZM14.818 21.14H2.617L1.458 5.095h.637l1.048 14.14c.006.074.04.143.093.194.054.051.125.08.198.08h.025a.287.287 0 0 0 .2-.1.296.296 0 0 0 .071-.216L2.683 5.095h13.293l-1.158 16.044Zm1.2-16.644H2.637l-.23-3.126a.306.306 0 0 0-.1-.198.297.297 0 0 0-.205-.077.299.299 0 0 0-.2.105.307.307 0 0 0-.07.216l.23 3.084h-.646L1.154.857H16.28l-.263 3.638Z"/>
    <path d="M5.23 8.062a.96.96 0 0 0 .538-.166.997.997 0 0 0 .147-1.513.965.965 0 0 0-1.056-.213.973.973 0 0 0-.436.362.994.994 0 0 0 .121 1.242.963.963 0 0 0 .686.288Zm0-1.371a.378.378 0 0 1 .352.24.393.393 0 0 1-.082.422.38.38 0 0 1-.653-.274.39.39 0 0 1 .112-.274.38.38 0 0 1 .27-.114ZM5.225 11.258a.993.993 0 0 0 .17.544.957.957 0 0 0 1.491.134.988.988 0 0 0 .202-1.072.98.98 0 0 0-.359-.439.96.96 0 0 0-1.434.454.996.996 0 0 0-.07.38Zm1.348 0a.392.392 0 0 1-.236.358.377.377 0 0 1-.416-.084.39.39 0 0 1 .27-.661.38.38 0 0 1 .27.113.39.39 0 0 1 .112.274ZM12.115 11.283a.96.96 0 0 0 .538-.165.997.997 0 0 0 .147-1.513.965.965 0 0 0-1.056-.214.972.972 0 0 0-.435.363.993.993 0 0 0 .12 1.241.962.962 0 0 0 .686.288Zm0-1.367a.379.379 0 0 1 .353.24.393.393 0 0 1-.085.424.38.38 0 0 1-.65-.28.39.39 0 0 1 .113-.272.38.38 0 0 1 .269-.112ZM8.738 9.429a.96.96 0 0 0 .538-.166.997.997 0 0 0 .147-1.513.965.965 0 0 0-1.056-.213.973.973 0 0 0-.435.362.994.994 0 0 0 .12 1.242.963.963 0 0 0 .686.288Zm0-1.371a.378.378 0 0 1 .353.24.393.393 0 0 1-.083.421.38.38 0 0 1-.652-.274.393.393 0 0 1 .23-.377c.048-.02.1-.031.152-.03v.02ZM6.89 15.005a.82.82 0 0 0 .144.445.803.803 0 0 0 .825.328.797.797 0 0 0 .405-.227.816.816 0 0 0 .164-.883.811.811 0 0 0-.295-.361.793.793 0 0 0-.443-.136.816.816 0 0 0-.568.252.84.84 0 0 0-.233.582Zm.8-.217a.212.212 0 0 1 .198.134.22.22 0 0 1-.047.236.213.213 0 0 1-.233.047.215.215 0 0 1-.131-.2c0-.058.022-.113.062-.154a.212.212 0 0 1 .151-.063ZM10.763 14.1a.814.814 0 0 0 .781-.498.844.844 0 0 0-.168-.92.818.818 0 0 0-.906-.181.825.825 0 0 0-.369.315.842.842 0 0 0 .107 1.038c.147.15.346.24.555.247Zm0-1.029c.057 0 .111.023.151.064a.218.218 0 0 1 0 .306.212.212 0 0 1-.303 0 .222.222 0 0 1-.065-.153.22.22 0 0 1 .064-.155.214.214 0 0 1 .153-.062ZM12.456 7.374a.813.813 0 0 0 .456-.14.845.845 0 0 0 .124-1.282.818.818 0 0 0-.895-.181.825.825 0 0 0-.368.307.842.842 0 0 0 .102 1.052.816.816 0 0 0 .58.244Zm0-1.029a.21.21 0 0 1 .187.035.215.215 0 0 1 .085.173.218.218 0 0 1-.085.173.212.212 0 0 1-.187.036.21.21 0 0 1-.25-.112.218.218 0 0 1 .152-.31.21.21 0 0 1 .098.005ZM4.424 20.093a.297.297 0 0 0-.17.3c.003.04.015.08.035.117a.304.304 0 0 0 .263.162.275.275 0 0 0 .131-.029 8.86 8.86 0 0 1 4.055-1c1.492.022 2.964.358 4.322.988a.292.292 0 0 0 .336-.044.301.301 0 0 0 .074-.336.307.307 0 0 0-.156-.166 11.207 11.207 0 0 0-4.576-1.042 9.43 9.43 0 0 0-4.314 1.05Z"/>
  </symbol>

  <symbol id="arrow-left" viewBox="0 0 24 24">
    <path d="M7.72 12.53a.75.75 0 0 1 0-1.06l7.5-7.5a.75.75 0 0 1 1.06 1.06L9.31 12l6.97 6.97a.75.75 0 1 1-1.06 1.06l-7.5-7.5Z"/>
  </symbol>

  <symbol id="arrow-right" viewBox="0 0 24 24">
      <path d="M16.28 11.47a.75.75 0 0 1 0 1.06l-7.5 7.5a.75.75 0 0 1-1.06-1.06L14.69 12 7.72 5.03a.75.75 0 1 1 1.06-1.06l7.5 7.5Z"/>
  </symbol>
  </defs>
</svg>
